<svg width="60" height="60" viewBox="0 0 60 60" fill="none" xmlns="http://www.w3.org/2000/svg">
<circle cx="30" cy="30" r="30" fill="#7AC340"/>
<path d="M30 15C28.3518 15 26.7407 15.463 25.3702 16.3305C23.9998 17.198 22.9317 18.431 22.301 19.8736C21.6703 21.3161 21.5052 22.9035 21.8268 24.4349C22.1483 25.9664 22.942 27.3731 24.1074 28.4772C25.2729 29.5813 26.7577 30.3332 28.3742 30.6378C29.9908 30.9424 31.6663 30.7861 33.189 30.1885C34.7117 29.591 36.0132 28.5791 36.9289 27.2808C37.8446 25.9825 38.3333 24.4562 38.3333 22.8947C38.3333 20.8009 37.4554 18.7929 35.8926 17.3123C34.3298 15.8318 32.2101 15 30 15ZM30 27.6316C29.0111 27.6316 28.0444 27.3538 27.2221 26.8333C26.3999 26.3128 25.759 25.573 25.3806 24.7074C25.0022 23.8419 24.9031 22.8895 25.0961 21.9706C25.289 21.0518 25.7652 20.2077 26.4645 19.5453C27.1637 18.8828 28.0546 18.4317 29.0245 18.2489C29.9945 18.0661 30.9998 18.1599 31.9134 18.5185C32.827 18.877 33.6079 19.4841 34.1573 20.2631C34.7068 21.0421 35 21.9579 35 22.8947C35 24.151 34.4732 25.3559 33.5355 26.2442C32.5979 27.1325 31.3261 27.6316 30 27.6316ZM45 45V43.4211C45 40.4897 43.7708 37.6784 41.5829 35.6057C39.395 33.5329 36.4275 32.3684 33.3333 32.3684H26.6667C23.5725 32.3684 20.605 33.5329 18.4171 35.6057C16.2292 37.6784 15 40.4897 15 43.4211V45H18.3333V43.4211C18.3333 41.3272 19.2113 39.3192 20.7741 37.8386C22.3369 36.3581 24.4565 35.5263 26.6667 35.5263H33.3333C35.5435 35.5263 37.6631 36.3581 39.2259 37.8386C40.7887 39.3192 41.6667 41.3272 41.6667 43.4211V45H45Z" fill="white"/>
</svg>
